# Blender 4.3.2
# www.blender.org
mtllib UnitCube.mtl
o Cube
v 1.000000 1.000000 -1.000000 1.0000 0.0000 0.9019
v 1.000000 -1.000000 -1.000000 0.9882 1.0000 0.0000
v 1.000000 1.000000 1.000000 0.0000 0.1020 1.0000
v 1.000000 -1.000000 1.000000 1.0000 0.5216 0.0000
v -1.000000 1.000000 -1.000000 0.1686 1.0000 0.0000
v -1.000000 -1.000000 -1.000000 1.0000 0.0000 0.9019
v -1.000000 1.000000 1.000000 1.0000 0.0314 0.0000
v -1.000000 -1.000000 1.000000 0.0000 1.0000 0.9882
vn -0.0000 1.0000 -0.0000
vn -0.0000 -0.0000 1.0000
vn -1.0000 -0.0000 -0.0000
vn -0.0000 -1.0000 -0.0000
vn 1.0000 -0.0000 -0.0000
vn -0.0000 -0.0000 -1.0000
vt 0.000000 1.000000
vt 1.000000 0.000000
vt 1.000000 1.000000
vt 0.000000 0.000000
s 0
usemtl Material
f 5/1/1 3/2/1 1/3/1
f 3/3/2 8/4/2 4/2/2
f 7/1/3 6/2/3 8/4/3
f 2/3/4 8/4/4 6/1/4
f 1/3/5 4/4/5 2/2/5
f 5/1/6 2/2/6 6/4/6
f 5/1/1 7/4/1 3/2/1
f 3/3/2 7/1/2 8/4/2
f 1/3/5 3/1/5 4/4/5
f 7/1/3 5/3/3 6/2/3
f 2/3/4 4/2/4 8/4/4
f 5/1/6 1/3/6 2/2/6
