{
	"asset":{
		"generator":"Khronos glTF Blender I/O v5.2.40",
		"version":"2.0"
	},
	"scene":0,
	"scenes":[
		{
			"name":"Scene",
			"nodes":[
				1
			]
		}
	],
	"nodes":[
		{
			"mesh":0,
			"name":"E1M1.bsp.geometry.001",
			"scale":[
				0.09995347261428833,
				0.09995347261428833,
				0.09995347261428833
			],
			"translation":[
				0,
				0,
				15.102384567260742
			]
		},
		{
			"children":[
				0
			],
			"name":"E1M1.bsp.geometry.tri.obj",
			"translation":[
				0,
				0,
				-4.262485027313232
			]
		}
	],
	"materials":[
		{
			"name":"Material.001",
			"pbrMetallicRoughness":{
				"baseColorFactor":[
					0.6000000238418579,
					0.6000000238418579,
					0.6000000238418579,
					1
				],
				"metallicFactor":0
			}
		}
	],
	"meshes":[
		{
			"name":"E1M1.bsp.geometry.001",
			"primitives":[
				{
					"attributes":{
						"POSITION":0,
						"NORMAL":1,
						"TEXCOORD_0":2
					},
					"indices":3,
					"material":0
				}
			]
		}
	],
	"accessors":[
		{
			"bufferView":0,
			"componentType":5126,
			"count":44697,
			"max":[
				1021.61328125,
				185.95413208007812,
				65.89279174804688
			],
			"min":[
				-1074.38671875,
				-678.0458984375,
				-3414.107177734375
			],
			"type":"VEC3"
		},
		{
			"bufferView":1,
			"componentType":5126,
			"count":44697,
			"type":"VEC3"
		},
		{
			"bufferView":2,
			"componentType":5126,
			"count":44697,
			"type":"VEC2"
		},
		{
			"bufferView":3,
			"componentType":5123,
			"count":44697,
			"type":"SCALAR"
		}
	],
	"bufferViews":[
		{
			"buffer":0,
			"byteLength":536364,
			"byteOffset":0,
			"target":34962
		},
		{
			"buffer":0,
			"byteLength":536364,
			"byteOffset":536364,
			"target":34962
		},
		{
			"buffer":0,
			"byteLength":357576,
			"byteOffset":1072728,
			"target":34962
		},
		{
			"buffer":0,
			"byteLength":89394,
			"byteOffset":1430304,
			"target":34963
		}
	],
	"buffers":[
		{
			"byteLength":1519700,
			"uri":"E1M1.bin"
		}
	]
}
